<svg width="23" height="17" viewBox="0 0 23 17" fill="none" xmlns="http://www.w3.org/2000/svg">
<path d="M1.39927 0C1.02796 0 0.671869 0.1475 0.409318 0.410051C0.146767 0.672602 -0.000732422 1.0287 -0.000732422 1.4V15.4C-0.000732422 15.7713 0.146767 16.1274 0.409318 16.3899C0.671869 16.6525 1.02796 16.8 1.39927 16.8H2.86927C3.02993 16.0088 3.45918 15.2975 4.08429 14.7865C4.7094 14.2756 5.49192 13.9965 6.29927 13.9965C7.10662 13.9965 7.88914 14.2756 8.51425 14.7865C9.13936 15.2975 9.56861 16.0088 9.72927 16.8H11.1993C11.5706 16.8 11.9267 16.6525 12.1892 16.3899C12.4518 16.1274 12.5993 15.7713 12.5993 15.4V1.4C12.5993 1.0287 12.4518 0.672602 12.1892 0.410051C11.9267 0.1475 11.5706 0 11.1993 0H1.39927ZM16.7993 4.2C16.428 4.2 16.0719 4.3475 15.8093 4.61005C15.5468 4.8726 15.3993 5.2287 15.3993 5.6V14.07C15.8497 13.978 16.3139 13.9756 16.7652 14.063C17.2166 14.1504 17.6463 14.3259 18.0298 14.5794C18.4134 14.8329 18.7432 15.1595 19.0005 15.5405C19.2577 15.9216 19.4374 16.3495 19.5293 16.8H20.9993C21.3706 16.8 21.7267 16.6525 21.9892 16.3899C22.2518 16.1274 22.3993 15.7713 22.3993 15.4L22.1985 8.40002C22.1984 8.02875 22.1985 4.40002 22.1985 4.40002H19.1985C19.1985 4.40002 18.5705 4.20008 18.1993 4.2H16.7993Z" fill="black"/>
</svg>
