<svg width="24" height="24" viewBox="0 0 24 24" fill="none" xmlns="http://www.w3.org/2000/svg">
<path fill-rule="evenodd" clip-rule="evenodd" d="M12 23.2C14.9705 23.2 17.8192 22.0201 19.9196 19.9196C22.0201 17.8192 23.2 14.9705 23.2 12C23.2 9.02962 22.0201 6.18086 19.9196 4.08045C17.8192 1.98005 14.9705 0.800049 12 0.800049C9.02962 0.800049 6.18086 1.98005 4.08045 4.08045C1.98005 6.18086 0.800049 9.02962 0.800049 12C0.800049 14.9705 1.98005 17.8192 4.08045 19.9196C6.18086 22.0201 9.02962 23.2 12 23.2ZM4.06485 9.23785C4.58466 7.74925 5.51215 6.43659 6.74165 5.44945C7.11685 6.02205 7.76365 6.40005 8.50005 6.40005C9.057 6.40005 9.59115 6.6213 9.98497 7.01512C10.3788 7.40895 10.6 7.94309 10.6 8.50005V9.20005C10.6 9.94265 10.895 10.6548 11.4201 11.1799C11.9453 11.705 12.6574 12 13.4 12C14.1427 12 14.8548 11.705 15.3799 11.1799C15.905 10.6548 16.2 9.94265 16.2 9.20005C16.1998 8.57344 16.4098 7.96487 16.7964 7.4717C17.1829 6.97854 17.7237 6.62929 18.3322 6.47985C19.6683 8.00818 20.4032 9.97008 20.4 12C20.4 12.476 20.3608 12.945 20.2838 13.4H19C18.2574 13.4 17.5453 13.695 17.0201 14.2201C16.495 14.7453 16.2 15.4574 16.2 16.2V19.2758C14.9237 20.0144 13.4747 20.4022 12 20.4V17.6C12 16.8574 11.705 16.1453 11.1799 15.6202C10.6548 15.095 9.94265 14.8 9.20005 14.8C8.45744 14.8 7.74525 14.505 7.22015 13.9799C6.69505 13.4548 6.40005 12.7427 6.40005 12C6.4003 11.3378 6.16584 10.697 5.73831 10.1913C5.31078 9.68559 4.71786 9.34777 4.06485 9.23785Z" fill="black"/>
</svg>
