<svg width="20" height="24" viewBox="0 0 20 24" fill="none" xmlns="http://www.w3.org/2000/svg">
<path d="M11.4 21.8C11.4001 22.0386 11.4612 22.2731 11.5774 22.4815C11.6936 22.6898 11.8612 22.8649 12.0641 22.9903C12.267 23.1157 12.4987 23.1871 12.737 23.1979C12.9753 23.2086 13.2124 23.1583 13.4258 23.0516L19.0258 20.2516C19.2583 20.1354 19.4538 19.9568 19.5906 19.7358C19.7273 19.5147 19.7998 19.26 19.8 19V10.9304C19.7998 10.6919 19.7387 10.4573 19.6225 10.249C19.5063 10.0407 19.3387 9.86554 19.1358 9.74016C18.9329 9.61478 18.7012 9.54333 18.4629 9.5326C18.2246 9.52187 17.9875 9.5722 17.7742 9.67883L12.1742 12.4788C11.9416 12.595 11.7461 12.7736 11.6093 12.9947C11.4726 13.2158 11.4001 13.4705 11.4 13.7304V21.8ZM17.2954 6.78643C17.5276 6.67004 17.7229 6.49133 17.8593 6.27029C17.9958 6.04925 18.0681 5.7946 18.0681 5.53483C18.0681 5.27506 17.9958 5.02042 17.8593 4.79938C17.7229 4.57834 17.5276 4.39963 17.2954 4.28323L10.6258 0.948433C10.4314 0.851332 10.2172 0.800781 9.99995 0.800781C9.78272 0.800781 9.56847 0.851332 9.37415 0.948433L2.70455 4.28323C2.47232 4.39963 2.27705 4.57834 2.14058 4.79938C2.00412 5.02042 1.93184 5.27506 1.93184 5.53483C1.93184 5.7946 2.00412 6.04925 2.14058 6.27029C2.27705 6.49133 2.47232 6.67004 2.70455 6.78643L9.37415 10.1212C9.56847 10.2183 9.78272 10.2689 9.99995 10.2689C10.2172 10.2689 10.4314 10.2183 10.6258 10.1212L17.2954 6.78643ZM2.22575 9.67883C2.01236 9.5722 1.77527 9.52187 1.53696 9.5326C1.29865 9.54333 1.06704 9.61478 0.864103 9.74016C0.661164 9.86554 0.493628 10.0407 0.377393 10.249C0.261158 10.4573 0.200079 10.6919 0.199951 10.9304V19C0.20009 19.26 0.272588 19.5147 0.409324 19.7358C0.546061 19.9568 0.741638 20.1354 0.974151 20.2516L6.57415 23.0516C6.78754 23.1583 7.02464 23.2086 7.26294 23.1979C7.50125 23.1871 7.73286 23.1157 7.9358 22.9903C8.13874 22.8649 8.30627 22.6898 8.42251 22.4815C8.53874 22.2731 8.59982 22.0386 8.59995 21.8V13.7304C8.59981 13.4705 8.52731 13.2158 8.39058 12.9947C8.25384 12.7736 8.05826 12.595 7.82575 12.4788L2.22575 9.67883Z" fill="black"/>
</svg>
